<?xml version="1.0" encoding="UTF-8" standalone="no"?>
<!DOCTYPE svg PUBLIC "-//W3C//DTD SVG 1.1//EN"
 "http://www.w3.org/Graphics/SVG/1.1/DTD/svg11.dtd">
<!-- Generated by graphviz version 8.1.0 (20230707.0739)
 -->
<!-- Title: Network Pages: 1 -->
<svg width="675pt" height="188pt"
 viewBox="0.00 0.00 674.62 188.00" xmlns="http://www.w3.org/2000/svg" xmlns:xlink="http://www.w3.org/1999/xlink">
<g id="graph0" class="graph" transform="scale(1 1) rotate(0) translate(4 184)">
<title>Network</title>
<polygon fill="white" stroke="none" points="-4,4 -4,-184 670.62,-184 670.62,4 -4,4"/>
<!-- Neuron_0_0 -->
<g id="node1" class="node">
<title>Neuron_0_0</title>
<ellipse fill="none" stroke="black" cx="607.31" cy="-162" rx="59.31" ry="18"/>
<text text-anchor="middle" x="607.31" y="-157.8" font-family="Times,serif" font-size="14.00">Neuron_0_0</text>
</g>
<!-- Neuron_1_0 -->
<g id="node6" class="node">
<title>Neuron_1_0</title>
<ellipse fill="none" stroke="black" cx="401.31" cy="-90" rx="59.31" ry="18"/>
<text text-anchor="middle" x="401.31" y="-85.8" font-family="Times,serif" font-size="14.00">Neuron_1_0</text>
</g>
<!-- Neuron_0_0&#45;&gt;Neuron_1_0 -->
<g id="edge1" class="edge">
<title>Neuron_0_0&#45;&gt;Neuron_1_0</title>
<path fill="none" stroke="black" d="M569.05,-148C535.48,-136.59 486.48,-119.94 450.1,-107.58"/>
<polygon fill="black" stroke="black" points="451.31,-103.95 440.72,-104.05 449.06,-110.58 451.31,-103.95"/>
</g>
<!-- Neuron_1_1 -->
<g id="node7" class="node">
<title>Neuron_1_1</title>
<ellipse fill="none" stroke="black" cx="538.31" cy="-90" rx="59.31" ry="18"/>
<text text-anchor="middle" x="538.31" y="-85.8" font-family="Times,serif" font-size="14.00">Neuron_1_1</text>
</g>
<!-- Neuron_0_0&#45;&gt;Neuron_1_1 -->
<g id="edge2" class="edge">
<title>Neuron_0_0&#45;&gt;Neuron_1_1</title>
<path fill="none" stroke="black" d="M590.96,-144.41C582.37,-135.69 571.67,-124.85 562.17,-115.21"/>
<polygon fill="black" stroke="black" points="565.06,-113.13 555.55,-108.47 560.07,-118.05 565.06,-113.13"/>
</g>
<!-- Neuron_1_2 -->
<g id="node8" class="node">
<title>Neuron_1_2</title>
<ellipse fill="none" stroke="black" cx="127.31" cy="-90" rx="59.31" ry="18"/>
<text text-anchor="middle" x="127.31" y="-85.8" font-family="Times,serif" font-size="14.00">Neuron_1_2</text>
</g>
<!-- Neuron_0_0&#45;&gt;Neuron_1_2 -->
<g id="edge3" class="edge">
<title>Neuron_0_0&#45;&gt;Neuron_1_2</title>
<path fill="none" stroke="black" d="M564.07,-149.39C555.57,-147.38 546.7,-145.47 538.31,-144 387.76,-117.66 346.86,-134.34 196.31,-108 191.33,-107.13 186.18,-106.1 181.04,-104.99"/>
<polygon fill="black" stroke="black" points="182.08,-101.41 171.55,-102.61 180.53,-108.24 182.08,-101.41"/>
</g>
<!-- Neuron_1_3 -->
<g id="node9" class="node">
<title>Neuron_1_3</title>
<ellipse fill="none" stroke="black" cx="264.31" cy="-90" rx="59.31" ry="18"/>
<text text-anchor="middle" x="264.31" y="-85.8" font-family="Times,serif" font-size="14.00">Neuron_1_3</text>
</g>
<!-- Neuron_0_0&#45;&gt;Neuron_1_3 -->
<g id="edge4" class="edge">
<title>Neuron_0_0&#45;&gt;Neuron_1_3</title>
<path fill="none" stroke="black" d="M563.24,-149.67C554.98,-147.68 546.4,-145.7 538.31,-144 447.79,-124.92 423.83,-127.08 333.31,-108 328.64,-107.01 323.79,-105.94 318.95,-104.82"/>
<polygon fill="black" stroke="black" points="319.92,-101.22 309.38,-102.33 318.31,-108.03 319.92,-101.22"/>
</g>
<!-- Neuron_0_1 -->
<g id="node2" class="node">
<title>Neuron_0_1</title>
<ellipse fill="none" stroke="black" cx="59.31" cy="-162" rx="59.31" ry="18"/>
<text text-anchor="middle" x="59.31" y="-157.8" font-family="Times,serif" font-size="14.00">Neuron_0_1</text>
</g>
<!-- Neuron_0_1&#45;&gt;Neuron_1_0 -->
<g id="edge5" class="edge">
<title>Neuron_0_1&#45;&gt;Neuron_1_0</title>
<path fill="none" stroke="black" d="M103.38,-149.68C111.64,-147.69 120.22,-145.71 128.31,-144 218.39,-124.98 242.23,-127.02 332.31,-108 336.99,-107.01 341.83,-105.93 346.68,-104.82"/>
<polygon fill="black" stroke="black" points="347.31,-108.03 356.24,-102.32 345.7,-101.21 347.31,-108.03"/>
</g>
<!-- Neuron_0_1&#45;&gt;Neuron_1_1 -->
<g id="edge6" class="edge">
<title>Neuron_0_1&#45;&gt;Neuron_1_1</title>
<path fill="none" stroke="black" d="M102.55,-149.39C111.05,-147.38 119.93,-145.47 128.31,-144 278.42,-117.71 319.2,-134.29 469.31,-108 474.29,-107.13 479.44,-106.1 484.59,-104.99"/>
<polygon fill="black" stroke="black" points="485.09,-108.24 494.07,-102.61 483.54,-101.41 485.09,-108.24"/>
</g>
<!-- Neuron_0_1&#45;&gt;Neuron_1_2 -->
<g id="edge7" class="edge">
<title>Neuron_0_1&#45;&gt;Neuron_1_2</title>
<path fill="none" stroke="black" d="M75.43,-144.41C83.9,-135.69 94.43,-124.85 103.8,-115.21"/>
<polygon fill="black" stroke="black" points="105.86,-118.08 110.31,-108.47 100.83,-113.2 105.86,-118.08"/>
</g>
<!-- Neuron_0_1&#45;&gt;Neuron_1_3 -->
<g id="edge8" class="edge">
<title>Neuron_0_1&#45;&gt;Neuron_1_3</title>
<path fill="none" stroke="black" d="M97.39,-148C130.8,-136.59 179.56,-119.94 215.76,-107.58"/>
<polygon fill="black" stroke="black" points="216.76,-110.6 225.09,-104.05 214.5,-103.97 216.76,-110.6"/>
</g>
<!-- Neuron_0_2 -->
<g id="node3" class="node">
<title>Neuron_0_2</title>
<ellipse fill="none" stroke="black" cx="196.31" cy="-162" rx="59.31" ry="18"/>
<text text-anchor="middle" x="196.31" y="-157.8" font-family="Times,serif" font-size="14.00">Neuron_0_2</text>
</g>
<!-- Neuron_0_2&#45;&gt;Neuron_1_0 -->
<g id="edge9" class="edge">
<title>Neuron_0_2&#45;&gt;Neuron_1_0</title>
<path fill="none" stroke="black" d="M234.39,-148C267.8,-136.59 316.56,-119.94 352.76,-107.58"/>
<polygon fill="black" stroke="black" points="353.76,-110.6 362.09,-104.05 351.5,-103.97 353.76,-110.6"/>
</g>
<!-- Neuron_0_2&#45;&gt;Neuron_1_1 -->
<g id="edge10" class="edge">
<title>Neuron_0_2&#45;&gt;Neuron_1_1</title>
<path fill="none" stroke="black" d="M240.38,-149.68C248.64,-147.69 257.22,-145.71 265.31,-144 355.39,-124.98 379.23,-127.02 469.31,-108 473.99,-107.01 478.83,-105.93 483.68,-104.82"/>
<polygon fill="black" stroke="black" points="484.31,-108.03 493.24,-102.32 482.7,-101.21 484.31,-108.03"/>
</g>
<!-- Neuron_0_2&#45;&gt;Neuron_1_2 -->
<g id="edge11" class="edge">
<title>Neuron_0_2&#45;&gt;Neuron_1_2</title>
<path fill="none" stroke="black" d="M179.96,-144.41C171.37,-135.69 160.67,-124.85 151.17,-115.21"/>
<polygon fill="black" stroke="black" points="154.06,-113.13 144.55,-108.47 149.07,-118.05 154.06,-113.13"/>
</g>
<!-- Neuron_0_2&#45;&gt;Neuron_1_3 -->
<g id="edge12" class="edge">
<title>Neuron_0_2&#45;&gt;Neuron_1_3</title>
<path fill="none" stroke="black" d="M212.43,-144.41C220.9,-135.69 231.43,-124.85 240.8,-115.21"/>
<polygon fill="black" stroke="black" points="242.86,-118.08 247.31,-108.47 237.83,-113.2 242.86,-118.08"/>
</g>
<!-- Neuron_0_3 -->
<g id="node4" class="node">
<title>Neuron_0_3</title>
<ellipse fill="none" stroke="black" cx="333.31" cy="-162" rx="59.31" ry="18"/>
<text text-anchor="middle" x="333.31" y="-157.8" font-family="Times,serif" font-size="14.00">Neuron_0_3</text>
</g>
<!-- Neuron_0_3&#45;&gt;Neuron_1_0 -->
<g id="edge13" class="edge">
<title>Neuron_0_3&#45;&gt;Neuron_1_0</title>
<path fill="none" stroke="black" d="M349.43,-144.41C357.9,-135.69 368.43,-124.85 377.8,-115.21"/>
<polygon fill="black" stroke="black" points="379.86,-118.08 384.31,-108.47 374.83,-113.2 379.86,-118.08"/>
</g>
<!-- Neuron_0_3&#45;&gt;Neuron_1_1 -->
<g id="edge14" class="edge">
<title>Neuron_0_3&#45;&gt;Neuron_1_1</title>
<path fill="none" stroke="black" d="M371.39,-148C404.8,-136.59 453.56,-119.94 489.76,-107.58"/>
<polygon fill="black" stroke="black" points="490.76,-110.6 499.09,-104.05 488.5,-103.97 490.76,-110.6"/>
</g>
<!-- Neuron_0_3&#45;&gt;Neuron_1_2 -->
<g id="edge15" class="edge">
<title>Neuron_0_3&#45;&gt;Neuron_1_2</title>
<path fill="none" stroke="black" d="M295.05,-148C261.48,-136.59 212.48,-119.94 176.1,-107.58"/>
<polygon fill="black" stroke="black" points="177.31,-103.95 166.72,-104.05 175.06,-110.58 177.31,-103.95"/>
</g>
<!-- Neuron_0_3&#45;&gt;Neuron_1_3 -->
<g id="edge16" class="edge">
<title>Neuron_0_3&#45;&gt;Neuron_1_3</title>
<path fill="none" stroke="black" d="M316.96,-144.41C308.37,-135.69 297.67,-124.85 288.17,-115.21"/>
<polygon fill="black" stroke="black" points="291.06,-113.13 281.55,-108.47 286.07,-118.05 291.06,-113.13"/>
</g>
<!-- Neuron_0_4 -->
<g id="node5" class="node">
<title>Neuron_0_4</title>
<ellipse fill="none" stroke="black" cx="470.31" cy="-162" rx="59.31" ry="18"/>
<text text-anchor="middle" x="470.31" y="-157.8" font-family="Times,serif" font-size="14.00">Neuron_0_4</text>
</g>
<!-- Neuron_0_4&#45;&gt;Neuron_1_0 -->
<g id="edge17" class="edge">
<title>Neuron_0_4&#45;&gt;Neuron_1_0</title>
<path fill="none" stroke="black" d="M453.96,-144.41C445.37,-135.69 434.67,-124.85 425.17,-115.21"/>
<polygon fill="black" stroke="black" points="428.06,-113.13 418.55,-108.47 423.07,-118.05 428.06,-113.13"/>
</g>
<!-- Neuron_0_4&#45;&gt;Neuron_1_1 -->
<g id="edge18" class="edge">
<title>Neuron_0_4&#45;&gt;Neuron_1_1</title>
<path fill="none" stroke="black" d="M486.43,-144.41C494.9,-135.69 505.43,-124.85 514.8,-115.21"/>
<polygon fill="black" stroke="black" points="516.86,-118.08 521.31,-108.47 511.83,-113.2 516.86,-118.08"/>
</g>
<!-- Neuron_0_4&#45;&gt;Neuron_1_2 -->
<g id="edge19" class="edge">
<title>Neuron_0_4&#45;&gt;Neuron_1_2</title>
<path fill="none" stroke="black" d="M426.24,-149.67C417.98,-147.68 409.4,-145.7 401.31,-144 310.79,-124.92 286.83,-127.08 196.31,-108 191.64,-107.01 186.79,-105.94 181.95,-104.82"/>
<polygon fill="black" stroke="black" points="182.92,-101.22 172.38,-102.33 181.31,-108.03 182.92,-101.22"/>
</g>
<!-- Neuron_0_4&#45;&gt;Neuron_1_3 -->
<g id="edge20" class="edge">
<title>Neuron_0_4&#45;&gt;Neuron_1_3</title>
<path fill="none" stroke="black" d="M432.05,-148C398.48,-136.59 349.48,-119.94 313.1,-107.58"/>
<polygon fill="black" stroke="black" points="314.31,-103.95 303.72,-104.05 312.06,-110.58 314.31,-103.95"/>
</g>
<!-- Neuron_2_0 -->
<g id="node10" class="node">
<title>Neuron_2_0</title>
<ellipse fill="none" stroke="black" cx="195.31" cy="-18" rx="59.31" ry="18"/>
<text text-anchor="middle" x="195.31" y="-13.8" font-family="Times,serif" font-size="14.00">Neuron_2_0</text>
</g>
<!-- Neuron_1_0&#45;&gt;Neuron_2_0 -->
<g id="edge21" class="edge">
<title>Neuron_1_0&#45;&gt;Neuron_2_0</title>
<path fill="none" stroke="black" d="M363.05,-76C329.48,-64.59 280.48,-47.94 244.1,-35.58"/>
<polygon fill="black" stroke="black" points="245.31,-31.95 234.72,-32.05 243.06,-38.58 245.31,-31.95"/>
</g>
<!-- Neuron_2_1 -->
<g id="node11" class="node">
<title>Neuron_2_1</title>
<ellipse fill="none" stroke="black" cx="332.31" cy="-18" rx="59.31" ry="18"/>
<text text-anchor="middle" x="332.31" y="-13.8" font-family="Times,serif" font-size="14.00">Neuron_2_1</text>
</g>
<!-- Neuron_1_0&#45;&gt;Neuron_2_1 -->
<g id="edge22" class="edge">
<title>Neuron_1_0&#45;&gt;Neuron_2_1</title>
<path fill="none" stroke="black" d="M384.96,-72.41C376.37,-63.69 365.67,-52.85 356.17,-43.21"/>
<polygon fill="black" stroke="black" points="359.06,-41.13 349.55,-36.47 354.07,-46.05 359.06,-41.13"/>
</g>
<!-- Neuron_2_2 -->
<g id="node12" class="node">
<title>Neuron_2_2</title>
<ellipse fill="none" stroke="black" cx="469.31" cy="-18" rx="59.31" ry="18"/>
<text text-anchor="middle" x="469.31" y="-13.8" font-family="Times,serif" font-size="14.00">Neuron_2_2</text>
</g>
<!-- Neuron_1_0&#45;&gt;Neuron_2_2 -->
<g id="edge23" class="edge">
<title>Neuron_1_0&#45;&gt;Neuron_2_2</title>
<path fill="none" stroke="black" d="M417.43,-72.41C425.9,-63.69 436.43,-52.85 445.8,-43.21"/>
<polygon fill="black" stroke="black" points="447.86,-46.08 452.31,-36.47 442.83,-41.2 447.86,-46.08"/>
</g>
<!-- Neuron_1_1&#45;&gt;Neuron_2_0 -->
<g id="edge24" class="edge">
<title>Neuron_1_1&#45;&gt;Neuron_2_0</title>
<path fill="none" stroke="black" d="M494.24,-77.67C485.98,-75.68 477.4,-73.7 469.31,-72 378.79,-52.92 354.83,-55.08 264.31,-36 259.64,-35.01 254.79,-33.94 249.95,-32.82"/>
<polygon fill="black" stroke="black" points="250.92,-29.22 240.38,-30.33 249.31,-36.03 250.92,-29.22"/>
</g>
<!-- Neuron_1_1&#45;&gt;Neuron_2_1 -->
<g id="edge25" class="edge">
<title>Neuron_1_1&#45;&gt;Neuron_2_1</title>
<path fill="none" stroke="black" d="M500.05,-76C466.48,-64.59 417.48,-47.94 381.1,-35.58"/>
<polygon fill="black" stroke="black" points="382.31,-31.95 371.72,-32.05 380.06,-38.58 382.31,-31.95"/>
</g>
<!-- Neuron_1_1&#45;&gt;Neuron_2_2 -->
<g id="edge26" class="edge">
<title>Neuron_1_1&#45;&gt;Neuron_2_2</title>
<path fill="none" stroke="black" d="M521.96,-72.41C513.37,-63.69 502.67,-52.85 493.17,-43.21"/>
<polygon fill="black" stroke="black" points="496.06,-41.13 486.55,-36.47 491.07,-46.05 496.06,-41.13"/>
</g>
<!-- Neuron_1_2&#45;&gt;Neuron_2_0 -->
<g id="edge27" class="edge">
<title>Neuron_1_2&#45;&gt;Neuron_2_0</title>
<path fill="none" stroke="black" d="M143.43,-72.41C151.9,-63.69 162.43,-52.85 171.8,-43.21"/>
<polygon fill="black" stroke="black" points="173.86,-46.08 178.31,-36.47 168.83,-41.2 173.86,-46.08"/>
</g>
<!-- Neuron_1_2&#45;&gt;Neuron_2_1 -->
<g id="edge28" class="edge">
<title>Neuron_1_2&#45;&gt;Neuron_2_1</title>
<path fill="none" stroke="black" d="M165.39,-76C198.8,-64.59 247.56,-47.94 283.76,-35.58"/>
<polygon fill="black" stroke="black" points="284.76,-38.6 293.09,-32.05 282.5,-31.97 284.76,-38.6"/>
</g>
<!-- Neuron_1_2&#45;&gt;Neuron_2_2 -->
<g id="edge29" class="edge">
<title>Neuron_1_2&#45;&gt;Neuron_2_2</title>
<path fill="none" stroke="black" d="M171.38,-77.68C179.64,-75.69 188.22,-73.71 196.31,-72 286.39,-52.98 310.23,-55.02 400.31,-36 404.99,-35.01 409.83,-33.93 414.68,-32.82"/>
<polygon fill="black" stroke="black" points="415.31,-36.03 424.24,-30.32 413.7,-29.21 415.31,-36.03"/>
</g>
<!-- Neuron_1_3&#45;&gt;Neuron_2_0 -->
<g id="edge30" class="edge">
<title>Neuron_1_3&#45;&gt;Neuron_2_0</title>
<path fill="none" stroke="black" d="M247.96,-72.41C239.37,-63.69 228.67,-52.85 219.17,-43.21"/>
<polygon fill="black" stroke="black" points="222.06,-41.13 212.55,-36.47 217.07,-46.05 222.06,-41.13"/>
</g>
<!-- Neuron_1_3&#45;&gt;Neuron_2_1 -->
<g id="edge31" class="edge">
<title>Neuron_1_3&#45;&gt;Neuron_2_1</title>
<path fill="none" stroke="black" d="M280.43,-72.41C288.9,-63.69 299.43,-52.85 308.8,-43.21"/>
<polygon fill="black" stroke="black" points="310.86,-46.08 315.31,-36.47 305.83,-41.2 310.86,-46.08"/>
</g>
<!-- Neuron_1_3&#45;&gt;Neuron_2_2 -->
<g id="edge32" class="edge">
<title>Neuron_1_3&#45;&gt;Neuron_2_2</title>
<path fill="none" stroke="black" d="M302.39,-76C335.8,-64.59 384.56,-47.94 420.76,-35.58"/>
<polygon fill="black" stroke="black" points="421.76,-38.6 430.09,-32.05 419.5,-31.97 421.76,-38.6"/>
</g>
</g>
</svg>
